
        <svg xmlns="http://www.w3.org/2000/svg" xmlns:xlink="http://www.w3.org/1999/xlink" version="1.1" width="3200" 
        height="1594.2868433432557" viewBox="0 0 3200 1594.2868433432557">
			
			<g transform="scale(10) translate(10, 10)">
				<defs id="SvgjsDefs1027"></defs><g id="SvgjsG1028" featureKey="symbolFeature-0" transform="matrix(0.45714285714285713,0,0,0.45714285714285713,141.34171316964284,8.01485857282366)" fill="#0151fd"><g xmlns="http://www.w3.org/2000/svg" fill="#0151fd"><path d="M106.44 67.78a43.75 43.75 0 0 1-43.75 43.75 43.75 43.75 0 0 1-43.75-43.75 43.75 43.75 0 0 1 43.75-43.75 43.75 43.75 0 0 1 43.75 43.75m-5.94-.01a37.74 37.74 0 0 0-37.74-37.74 37.74 37.74 0 0 0-37.74 37.74 37.74 37.74 0 0 0 37.74 37.74 37.74 37.74 0 0 0 37.74-37.74"></path><path d="M95.53 67.73a32.82 32.82 0 0 1-32.82 32.82 32.82 32.82 0 0 1-32.82-32.82 32.82 32.82 0 0 1 32.82-32.82 32.82 32.82 0 0 1 32.82 32.82m-5.62-.02a27.18 27.18 0 0 0-27.18-27.18 27.18 27.18 0 0 0-27.18 27.18 27.18 27.18 0 0 0 27.18 27.18 27.18 27.18 0 0 0 27.18-27.18"></path><path d="M84.73 67.69A22.03 22.03 0 0 1 62.7 89.72a22.03 22.03 0 0 1-22.03-22.03A22.03 22.03 0 0 1 62.7 45.66a22.03 22.03 0 0 1 22.03 22.03m-5.6-.01a16.44 16.44 0 0 0-16.44-16.44 16.44 16.44 0 0 0-16.44 16.44 16.44 16.44 0 0 0 16.44 16.44 16.44 16.44 0 0 0 16.44-16.44"></path><path d="M74.44 67.75A11.74 11.74 0 0 1 62.7 79.49a11.74 11.74 0 0 1-11.74-11.74A11.74 11.74 0 0 1 62.7 56.01a11.74 11.74 0 0 1 11.74 11.74m-5.72.1a6.07 6.07 0 0 0-6.07-6.07 6.07 6.07 0 0 0-6.07 6.07 6.07 6.07 0 0 0 6.07 6.07 6.07 6.07 0 0 0 6.07-6.07"></path></g></g><g id="SvgjsG1029" featureKey="s6yzU4-0" transform="matrix(4.550970473481896,0,0,4.550970473481896,-3.640774262965485,32.69418149925228)" fill="#0151fd"><path d="M10.46 19.28 l-2.3 0 l-2.76 -5.14 l-1.86 0.02 l0 5.12 l-2.02 0 l0 -13.28 l-0.72 0 l0 14 l3.48 0 l0 -5.14 l0.7 0 l2.74 5.14 l3.94 0 l-2.76 -5.16 l-0.66 0.26 z M5.7 6.720000000000001 c2.9 0 4.54 1.3 4.54 3.68 c0 2.16 -1.3 3.48 -3.56 3.72 l-0.54 0.06 l2.5 4.62 l0.82 0 l-2.18 -4.06 c2.4 -0.42 3.68 -1.88 3.68 -4.34 c0 -0.82 -0.18 -1.56 -0.52 -2.22 c-0.8 -1.42 -2.44 -2.18 -4.74 -2.18 l-3.54 0 l0 12.78 l0.72 0 l0 -12.06 l2.82 0 z M5.54 13.52 c2.74 0 4.04 -0.94 4.04 -3.02 c0 -1.98 -1.36 -3.1 -3.54 -3.1 l-2.52 0 l0 2.1 l2.3 0 c1.06 0 1.6 0.3 1.6 0.9 c0 0.7 -0.66 1.04 -2 1.04 l-1.16 0 l0 -1.24 l-0.74 0 l0 1.96 l1.9 0 c1.78 0 2.72 -0.62 2.72 -1.76 c0 -0.36 -0.08 -0.64 -0.26 -0.86 c-0.34 -0.5 -1.02 -0.74 -2.06 -0.74 l-1.56 0 l0 -0.68 l1.78 0 c1.78 0 2.82 0.86 2.82 2.38 c0 1.58 -1.06 2.32 -3.32 2.32 l-2 0 l0 0.7 l2 0 z M12.46 6.039999999999999 l0.72 0 l0 13.24 l7.66 0 l0 -2 l-5.64 0 l0 -1.92 l0.72 0 l0 1.2 l5.64 0 l0 3.44 l-9.1 0 l0 -13.96 z M13.82 6.039999999999999 l7.64 0 l0 3.42 l-4.8 0 l0 -0.72 l4.08 0 l0 -1.98 l-6.2 0 l0 5.78 l4.66 0 l0 0.72 l-5.38 0 l0 -7.22 z M13.82 13.9 l6.08 0 l0 -2 l-4.7 0 l0 -4.54 l4.84 0 l0 0.72 l-4.12 0 l0 3.1 l4.7 0 l0 3.44 l-6.08 0 l0 3.32 l5.6 0 l0 0.72 l-6.32 0 l0 -4.76 z M33.54 8.02 c-1.2 -1.26 -2.74 -2 -4.24 -2 l-5.86 0 l0 0.72 l5.86 0.02 c0.94 0 1.84 0.3 2.7 0.88 c1.68 1.18 2.8 3.3 2.8 5.36 c0 1.08 -0.24 2.08 -0.74 3.02 c-1 1.86 -3.02 3.22 -4.76 3.22 l-5.14 0 l0 -11.22 l4.98 0.02 c0.72 0 1.42 0.22 2.08 0.68 c1.34 0.9 2.22 2.62 2.22 4.28 c0 1.22 -0.52 2.48 -1.46 3.46 c-0.88 0.88 -1.94 1.44 -2.82 1.44 l-2.28 0 l0.02 -7.9 l-0.7 0 l-0.02 8.26 l0 0.36 l2.98 0 c1.1 0 2.38 -0.62 3.36 -1.66 c1.06 -1.14 1.64 -2.54 1.64 -3.96 c0 -1.44 -0.56 -2.88 -1.58 -4 c-1.1 -1.1 -2.3 -1.7 -3.44 -1.7 l-5.7 0 l0 12.68 l5.86 0 c1.44 0 3 -0.74 4.18 -2 c1.3 -1.34 2.02 -3.12 2.02 -4.98 s-0.68 -3.62 -1.96 -4.98 z M29.08 17.259999999999998 c0.56 0 1.14 -0.22 1.76 -0.64 c1.22 -0.86 2 -2.3 2 -3.64 c0 -0.72 -0.18 -1.42 -0.52 -2.1 c-0.7 -1.34 -1.96 -2.18 -3.24 -2.18 l-4.3 0.02 l0.02 9.94 l0.72 0 l0 -9.24 l3.56 -0.02 c0.46 0 0.94 0.18 1.44 0.52 c1.02 0.72 1.6 1.84 1.6 3.06 c0 0.82 -0.38 1.74 -1 2.44 s-1.38 1.12 -2.04 1.12 l-1.42 0 l0 0.72 l1.42 0 z M36.76 6 l2.1 0 l0 12.66 l-0.72 0 l0 -11.94 l-0.66 0 l0 12.56 l2.02 0 l0 -13.28 l0.72 0 l0 14 l-3.46 0 l0 -14 z M48.3 9.84 l-0.76 1.18 l-2.82 -4.3 l0.76 0 l2.06 3.2 l0.42 -0.68 l-2.08 -3.24 l-2.48 0 l4.14 6.34 l4.04 -6.34 l-0.86 0 l-2.4 3.8 z M43.81999999999999 19.28 l-0.68 0 l4.04 -6.38 l-4.4 -6.88 l-0.86 0 l4.4 6.9 l-4.5 7.1 l2.38 -0.02 l8.48 -13.26 l0.72 0 l-4.74 7.44 l2.96 4.64 l0.86 0 l-2.98 -4.64 l5.22 -8.16 l-2.42 0 z M50.239999999999995 14.24 l3.26 5.04 l-2.28 0 l-2.96 -4.5 l-3.36 5.22 l0.86 0 l2.52 -3.9 l2.54 3.9 l4 0 l-4.08 -6.34 l-0.06 -0.1 z M64.46 15.440000000000001 c-1.26 0.82 -1.88 1.06 -2.74 1.06 c-0.6 0 -1.16 -0.16 -1.7 -0.48 c-1.06 -0.64 -1.78 -1.8 -1.78 -3 c0 -0.64 0.16 -1.24 0.48 -1.78 c0.62 -1.08 1.8 -1.72 3 -1.72 c0.76 0 1.44 0.22 2.02 0.64 c0.1 0.06 0.22 0.14 0.36 0.28 l0.3 0.22 l1.34 -1.58 l-0.22 -0.22 c-0.14 -0.14 -0.32 -0.26 -0.54 -0.4 c-0.94 -0.72 -2.04 -1.08 -3.26 -1.08 c-1.5 0 -2.88 0.58 -3.98 1.64 c-1.06 1.12 -1.66 2.5 -1.66 4 s0.6 2.92 1.66 3.98 s2.48 1.66 3.98 1.66 c1.08 0 2.08 -0.3 3.02 -0.9 l-0.4 -0.6 c-0.82 0.54 -1.68 0.8 -2.62 0.8 c-1.3 0 -2.54 -0.52 -3.48 -1.46 s-1.44 -2.18 -1.44 -3.48 s0.5 -2.52 1.44 -3.46 c0.94 -0.96 2.18 -1.46 3.48 -1.46 c0.98 0 1.92 0.3 2.86 0.92 l0.16 0.14 l-0.44 0.5 c-0.06 -0.02 -0.1 -0.04 -0.14 -0.08 c-0.74 -0.5 -1.56 -0.76 -2.44 -0.76 c-0.78 0 -1.48 0.18 -2.1 0.54 c-1.26 0.74 -2.1 2.2 -2.1 3.66 c0 0.7 0.2 1.4 0.58 2.06 c0.78 1.34 2.2 2.16 3.62 2.16 c0.94 0 1.7 -0.28 2.84 -1 l1.12 1.66 c-1.46 0.96 -2.6 1.36 -3.96 1.36 c-1.12 0 -2.16 -0.28 -3.12 -0.84 c-1.94 -1.12 -3.14 -3.16 -3.14 -5.4 c0 -1.12 0.28 -2.16 0.84 -3.14 c1.12 -1.92 3.18 -3.12 5.42 -3.12 c1.58 0 3.08 0.58 4.22 1.64 l0.12 0.1 l0.16 0.16 l0.5 -0.52 l-0.28 -0.28 c-1.28 -1.14 -2.96 -1.8 -4.72 -1.8 c-1.26 0 -2.42 0.3 -3.48 0.92 c-2.12 1.22 -3.5 3.56 -3.5 6.04 c0 1.22 0.32 2.38 0.96 3.46 c1.26 2.16 3.52 3.52 6.02 3.52 c1.58 0 2.9 -0.5 4.68 -1.72 l0.28 -0.18 l-1.9 -2.86 z"></path></g><g id="SvgjsG1030" featureKey="sT9YGu-0" transform="matrix(0.343144398034214,0,0,0.343144398034214,5.373349697430136,132.0463891673931)" fill="#0151fd"><path d="M4.7559 17.4121 l4.4238 0 l0 2.5879 l-7.3535 0 l0 -14.111 l2.9297 0 l0 11.523 z M40.098124999999996 20 l-1.0254 -2.9102 l-5.9277 0 l-1.0254 2.9102 l-2.998 0 l5.1953 -14.111 l3.584 0 l5.1953 14.111 l-2.998 0 z M34.003925 14.6387 l4.209 0 l-2.0996 -5.9863 z M97.206546875 8.467 l-5.3711 0 l0 3.2031 l4.6387 0 l0 2.5488 l-4.6387 0 l0 5.7813 l-2.9492 0 l0 -14.111 l8.3203 0 l0 2.5781 z M118.945340625 20 l0 -14.111 l2.9297 0 l0 14.111 l-2.9297 0 z M152.3339875 12.5488 c1.5918 0.43945 2.6563 1.4844 2.6563 3.4961 c0 2.3828 -1.4453 3.9551 -4.4238 3.9551 l-5.8105 0 l0 -14.111 l4.5703 0 c3.0469 0 4.6484 1.4648 4.6484 3.8672 c0 1.2402 -0.53711 2.2559 -1.6406 2.793 z M149.3554875 8.32 l-1.7773 0 l0 3.3203 l1.9043 0 c1.25 0 1.7969 -0.74219 1.7969 -1.6992 c0 -0.9375 -0.61523 -1.6211 -1.9238 -1.6211 z M150.0194875 17.4902 c1.582 0 2.1289 -0.84961 2.1289 -1.7676 c0 -0.9375 -0.53711 -1.8262 -2.1875 -1.8262 l-2.3828 0 l0 3.5938 l2.4414 0 z M184.287065625 20 l-3.6719 -6.2109 l-0.84961 0 l0 6.2109 l-2.9297 0 l0 -14.111 l5.1172 0 c3.1934 0 4.541 1.8848 4.541 4.2188 c0 1.8945 -1.0742 3.125 -2.9883 3.5352 l4.248 6.3574 l-3.4668 0 z M179.765665625 8.32 l0 3.3691 l1.7285 0 c1.5625 0 2.1973 -0.66406 2.1973 -1.6797 c0 -1.0059 -0.63477 -1.6895 -2.1973 -1.6895 l-1.7285 0 z M218.584453125 20 l-1.0254 -2.9102 l-5.9277 0 l-1.0254 2.9102 l-2.998 0 l5.1953 -14.111 l3.584 0 l5.1953 14.111 l-2.998 0 z M212.490253125 14.6387 l4.209 0 l-2.0996 -5.9863 z M281.337875 20.58594 l-2.4414 0.92773 l-1.8066 -2.0313 c-0.99609 0.45898 -2.1484 0.71289 -3.3984 0.71289 c-4.1992 0 -7.3047 -2.832 -7.3047 -7.2559 c0 -4.4336 3.1055 -7.2461 7.3047 -7.2461 s7.3047 2.8125 7.3047 7.2461 c0 2.0996 -0.69336 3.8379 -1.875 5.0879 z M269.306675 12.939499999999999 c0 3.0078 1.9043 4.707 4.3848 4.707 s4.3848 -1.6992 4.3848 -4.707 c0 -2.8516 -1.9043 -4.5508 -4.3848 -4.5508 s-4.3848 1.6992 -4.3848 4.5508 z M308.3008 20.19531 c-3.0957 0 -5.5176 -1.582 -5.5176 -5.1367 l0 -9.1699 l2.9297 0 l0 8.7695 c0 2.1484 1.1426 2.9492 2.5879 2.9492 c1.4551 0 2.6074 -0.81055 2.6074 -2.9492 l0 -8.7695 l2.9297 0 l0 9.1699 c0 3.5547 -2.4316 5.1367 -5.5371 5.1367 z M344.619375 8.467 l-5.2344 0 l0 3.2031 l4.6387 0 l0 2.5488 l-4.6387 0 l0 3.1934 l5.2344 0 l0 2.5879 l-8.1836 0 l0 -14.111 l8.1836 0 l0 2.5781 z M399.492421875 5.888999999999999 l0 2.5781 l-3.3496 0 l0 11.533 l-2.9004 0 l0 -11.533 l-3.3691 0 l0 -2.5781 l9.6191 0 z M429.13109375 8.467 l-5.2344 0 l0 3.2031 l4.6387 0 l0 2.5488 l-4.6387 0 l0 3.1934 l5.2344 0 l0 2.5879 l-8.1836 0 l0 -14.111 l8.1836 0 l0 2.5781 z M481.044940625 20.19531 c-3.0957 0 -5.5176 -1.582 -5.5176 -5.1367 l0 -9.1699 l2.9297 0 l0 8.7695 c0 2.1484 1.1426 2.9492 2.5879 2.9492 c1.4551 0 2.6074 -0.81055 2.6074 -2.9492 l0 -8.7695 l2.9297 0 l0 9.1699 c0 3.5547 -2.4316 5.1367 -5.5371 5.1367 z M518.818515625 5.888999999999999 l2.9199 0 l0 14.111 l-3.3887 0 l-6.25 -10.088 l0 10.088 l-2.9199 0 l0 -14.111 l3.3496 0 l6.2891 10.029 l0 -10.029 z M552.812734375 8.467 l-5.2344 0 l0 3.2031 l4.6387 0 l0 2.5488 l-4.6387 0 l0 3.1934 l5.2344 0 l0 2.5879 l-8.1836 0 l0 -14.111 l8.1836 0 l0 2.5781 z M608.94578125 20 l-1.0254 -2.9102 l-5.9277 0 l-1.0254 2.9102 l-2.998 0 l5.1953 -14.111 l3.584 0 l5.1953 14.111 l-2.998 0 z M602.85158125 14.6387 l4.209 0 l-2.0996 -5.9863 z M636.230509375 17.4121 l4.4238 0 l0 2.5879 l-7.3535 0 l0 -14.111 l2.9297 0 l0 11.523 z M702.734328125 20 l-2.9199 0 l-0.92773 -10.635 l-3.5742 10.635 l-1.8945 0 l-3.5742 -10.635 l-0.9375 10.635 l-2.9297 0 l1.1816 -14.111 l4.1797 0 l3.0078 8.8574 l3.0469 -8.8574 l4.1797 0 z M730.263690625 20.19531 c-3.0957 0 -5.5176 -1.582 -5.5176 -5.1367 l0 -9.1699 l2.9297 0 l0 8.7695 c0 2.1484 1.1426 2.9492 2.5879 2.9492 c1.4551 0 2.6074 -0.81055 2.6074 -2.9492 l0 -8.7695 l2.9297 0 l0 9.1699 c0 3.5547 -2.4316 5.1367 -5.5371 5.1367 z M768.037265625 5.888999999999999 l2.9199 0 l0 14.111 l-3.3887 0 l-6.25 -10.088 l0 10.088 l-2.9199 0 l0 -14.111 l3.3496 0 l6.2891 10.029 l0 -10.029 z M793.847684375 20 l0 -14.111 l5.1074 0 c4.502 0 6.7285 2.832 6.7285 7.0508 c0 4.2285 -2.2266 7.0605 -6.7285 7.0605 l-5.1074 0 z M796.777384375 17.4121 l2.0313 0 c2.5977 0 3.7891 -1.6211 3.7891 -4.4727 s-1.1914 -4.4727 -3.7891 -4.4727 l-2.0313 0 l0 8.9453 z M833.91604375 20.19531 c-4.1504 0 -7.2168 -2.832 -7.2168 -7.2559 c0 -4.4336 3.0664 -7.2461 7.2168 -7.2461 c4.1406 0 7.207 2.8125 7.207 7.2461 c0 4.4238 -3.0664 7.2559 -7.207 7.2559 z M833.91604375 17.5098 c2.4316 0 4.2969 -1.709 4.2969 -4.5703 c0 -2.8516 -1.8652 -4.5508 -4.2969 -4.5508 s-4.2969 1.6992 -4.2969 4.5508 c0 2.8613 1.8652 4.5703 4.2969 4.5703 z"></path></g>
			</g>
		</svg>
	